<svg width="16" height="16" viewBox="0 0 16 16" fill="none" xmlns="http://www.w3.org/2000/svg">
<path d="M8.87798 8.24166C9.56546 7.86548 10.0007 7.08641 10 6.23346C10 4.99981 9.10425 4 8.00021 4C6.89618 4 6 4.99971 6 6.23337C5.99912 7.08663 6.43485 7.86591 7.12287 8.24156V11H8.8779L8.87798 8.24166Z" fill="#275459"/>
<path fill-rule="evenodd" clip-rule="evenodd" d="M8 16C12.4183 16 16 12.4183 16 8C16 3.58172 12.4183 0 8 0C3.58172 0 0 3.58172 0 8C0 12.4183 3.58172 16 8 16ZM8 13.3333C10.9455 13.3333 13.3333 10.9455 13.3333 8C13.3333 5.05448 10.9455 2.66667 8 2.66667C5.05448 2.66667 2.66667 5.05448 2.66667 8C2.66667 10.9455 5.05448 13.3333 8 13.3333Z" fill="#275459"/>
</svg>
